<svg xmlns="http://www.w3.org/2000/svg" width="77.377" height="77.377" viewBox="0 0 77.377 77.377">
  <g id="Group_82" data-name="Group 82" transform="translate(-1374.365 -916.492)">
    <circle id="Ellipse_5" data-name="Ellipse 5" cx="38.688" cy="38.688" r="38.688" transform="translate(1374.365 916.492)" fill="#fabc00"/>
    <path id="Path_478" data-name="Path 478" d="M1436.406,960.236a2.842,2.842,0,0,0-3.082.836l-3.85-1.329a16.968,16.968,0,0,0-.717-11.188l1.183-.576a2.475,2.475,0,1,0-.8-1.64l-1.183.575a16.963,16.963,0,0,0-8.36-7.469l1.33-3.849a2.847,2.847,0,1,0-1.983-.685l-1.33,3.849a16.968,16.968,0,0,0-11.188.717l-.575-1.183a2.474,2.474,0,1,0-1.641.8l.576,1.183a16.964,16.964,0,0,0-7.469,8.36l-3.85-1.33a2.845,2.845,0,1,0-.685,1.983l3.85,1.33a16.962,16.962,0,0,0,.717,11.188l-1.183.575a2.475,2.475,0,1,0,.8,1.641l1.183-.576a16.967,16.967,0,0,0,8.36,7.469l-1.33,3.85a2.846,2.846,0,1,0,1.983.685l1.33-3.85a16.969,16.969,0,0,0,11.188-.717l.575,1.183a2.474,2.474,0,1,0,1.641-.8l-.576-1.182a16.969,16.969,0,0,0,7.469-8.361l3.85,1.33a2.844,2.844,0,1,0,3.767-2.819Zm-23.834,1.194a5.016,5.016,0,1,1-3.1-6.378A5.017,5.017,0,0,1,1412.572,961.43Zm2.941-13.368a3.78,3.78,0,1,1-2.339-4.806A3.78,3.78,0,0,1,1415.513,948.062Zm7.568,8.162a2.287,2.287,0,1,1-1.415-2.907A2.288,2.288,0,0,1,1423.081,956.224Z" fill="#fff"/>
  </g>
</svg>
