<svg xmlns="http://www.w3.org/2000/svg" width="77.377" height="77.377" viewBox="0 0 77.377 77.377">
  <g id="Group_94" data-name="Group 94" transform="translate(-1502.445 -1564.492)">
    <circle id="Ellipse_3" data-name="Ellipse 3" cx="38.688" cy="38.688" r="38.688" transform="translate(1502.445 1564.492)" fill="#31a952"/>
    <path id="Path_476" data-name="Path 476" d="M1275.486,960.236a2.841,2.841,0,0,0-3.082.836l-3.85-1.329a16.968,16.968,0,0,0-.717-11.188l1.183-.576a2.475,2.475,0,1,0-.8-1.64l-1.183.575a16.967,16.967,0,0,0-8.36-7.469l1.329-3.849a2.846,2.846,0,1,0-1.983-.685l-1.329,3.849a16.968,16.968,0,0,0-11.188.717l-.575-1.183a2.474,2.474,0,1,0-1.641.8l.575,1.183a16.968,16.968,0,0,0-7.469,8.36l-3.849-1.33a2.845,2.845,0,1,0-.685,1.983l3.849,1.33a16.975,16.975,0,0,0,.717,11.188l-1.183.575a2.474,2.474,0,1,0,.8,1.641l1.183-.576a16.963,16.963,0,0,0,8.36,7.469l-1.33,3.85a2.846,2.846,0,1,0,1.983.685l1.33-3.85a16.965,16.965,0,0,0,11.187-.717l.576,1.183a2.474,2.474,0,1,0,1.641-.8l-.576-1.182a16.97,16.97,0,0,0,7.469-8.361l3.85,1.33a2.843,2.843,0,1,0,3.767-2.819Zm-23.835,1.194a5.015,5.015,0,1,1-3.1-6.378A5.016,5.016,0,0,1,1251.651,961.43Zm2.941-13.368a3.78,3.78,0,1,1-2.338-4.806A3.779,3.779,0,0,1,1254.592,948.062Zm7.568,8.162a2.286,2.286,0,1,1-1.415-2.907A2.286,2.286,0,0,1,1262.16,956.224Z" transform="translate(289 648)" fill="#fff"/>
  </g>
</svg>
