<svg xmlns="http://www.w3.org/2000/svg" width="50" height="50" viewBox="0 0 50 50">
  <g id="Group_98" data-name="Group 98" transform="translate(-1884 -2417)">
    <g id="Rectangle_32" data-name="Rectangle 32" transform="translate(1884 2417)" fill="#fff" stroke="#707070" stroke-width="1" opacity="0">
      <rect width="50" height="50" stroke="none"/>
      <rect x="0.5" y="0.5" width="49" height="49" fill="none"/>
    </g>
    <g id="Group_97" data-name="Group 97" transform="translate(1772 2232)">
      <g id="Group_96" data-name="Group 96">
        <g id="Group_84" data-name="Group 84" transform="translate(-1218.867 -239)">
          <rect id="Rectangle_26" data-name="Rectangle 26" width="17.594" height="44.711" rx="1.143" transform="translate(1347.765 426.76)" fill="none" stroke="#1e6dea" stroke-miterlimit="10" stroke-width="2"/>
          <g id="Group_67" data-name="Group 67">
            <g id="Group_66" data-name="Group 66">
              <rect id="Rectangle_27" data-name="Rectangle 27" width="4.871" height="17.612" rx="1.06" transform="translate(1354.208 439.998)" fill="none" stroke="#1e6dea" stroke-miterlimit="10" stroke-width="2"/>
            </g>
          </g>
          <g id="Group_69" data-name="Group 69">
            <g id="Group_68" data-name="Group 68">
              <path id="Path_467" data-name="Path 467" d="M1351.228,446.479a.885.885,0,0,1-.7-.285,1.319,1.319,0,0,1,0-1.556.978.978,0,0,1,1.3-.071.764.764,0,0,1,.271.544h-.412a.452.452,0,0,0-.158-.28.465.465,0,0,0-.307-.1.444.444,0,0,0-.377.185.986.986,0,0,0,0,1.009.445.445,0,0,0,.378.186.482.482,0,0,0,.308-.1.425.425,0,0,0,.157-.267h.412a.747.747,0,0,1-.269.534A.915.915,0,0,1,1351.228,446.479Z" fill="#1e6dea"/>
            </g>
          </g>
          <g id="Group_71" data-name="Group 71">
            <g id="Group_70" data-name="Group 70">
              <path id="Path_468" data-name="Path 468" d="M1351.439,452.892h-.423v-1.661h-.607v-.361h1.637v.361h-.607Z" fill="#1e6dea"/>
            </g>
          </g>
          <g id="Group_73" data-name="Group 73">
            <g id="Group_72" data-name="Group 72">
              <path id="Path_469" data-name="Path 469" d="M1350.377,464.783h.41a.258.258,0,0,0,.128.2.539.539,0,0,0,.295.073.468.468,0,0,0,.27-.072.219.219,0,0,0,.1-.187.186.186,0,0,0-.081-.157.726.726,0,0,0-.268-.1l-.263-.056c-.366-.076-.549-.269-.549-.577a.563.563,0,0,1,.211-.459.985.985,0,0,1,1.111,0,.564.564,0,0,1,.225.44h-.4a.275.275,0,0,0-.118-.194.5.5,0,0,0-.511,0,.215.215,0,0,0-.1.184.179.179,0,0,0,.078.151.689.689,0,0,0,.256.1l.244.052a.876.876,0,0,1,.442.2.5.5,0,0,1,.139.373.584.584,0,0,1-.219.481,1.105,1.105,0,0,1-1.181.01A.562.562,0,0,1,1350.377,464.783Z" fill="#1e6dea"/>
            </g>
          </g>
          <path id="Path_470" data-name="Path 470" d="M1356.643,468a2.438,2.438,0,0,1-2.435-2.436v-2.374a2.435,2.435,0,1,1,4.87,0v2.374A2.438,2.438,0,0,1,1356.643,468Z" fill="none" stroke="#1e6dea" stroke-miterlimit="10" stroke-width="2"/>
        </g>
      </g>
    </g>
  </g>
</svg>
