<svg xmlns="http://www.w3.org/2000/svg" width="31.141" height="31.001" viewBox="0 0 31.141 31.001">
  <g id="Group_85" data-name="Group 85" transform="translate(-1340.992 -519.461)">
    <g id="Group_77" data-name="Group 77">
      <path id="Path_471" data-name="Path 471" d="M1364.16,525.587a3.063,3.063,0,1,0-3.063-3.063A3.067,3.067,0,0,0,1364.16,525.587Zm0-4.66a1.6,1.6,0,1,1-1.6,1.6A1.6,1.6,0,0,1,1364.16,520.927Z" fill="#1e6dea"/>
      <path id="Path_472" data-name="Path 472" d="M1351.814,540.035c.015-.021.028-.042.041-.064a.652.652,0,0,0,.034-.071l1.615-2.915a.733.733,0,0,0-1.283-.71l-1.3,2.341-2.235-1.242h0a3.229,3.229,0,0,0-4.389,1.226c-.009.017-.017.035-.025.052l-2.917,5.222a.671.671,0,0,0-.058.087,2.4,2.4,0,0,0,.918,3.261c.019.011.039.02.058.029l2.286,1.284a2.061,2.061,0,1,0,3.507-1.735Zm-3.838-1.38h0l2.236,1.242-3.484,6.292c-.043,0-.085,0-.128,0a2.06,2.06,0,0,0-1.68.869l-1.975-1.109c-.011-.007-.023-.012-.035-.018a.927.927,0,0,1-.368-1.184.618.618,0,0,0,.044-.069l2.992-5.356c.006-.011.01-.022.016-.033A1.761,1.761,0,0,1,1347.976,538.655Zm-1.374,10.188a.6.6,0,0,1-.6-.6v-.009a.737.737,0,0,0,.013-.116.6.6,0,1,1,.582.72Z" fill="#1e6dea"/>
      <path id="Path_473" data-name="Path 473" d="M1372.083,535.5a1.859,1.859,0,0,0-1.282-1.344l-.009,0-2.257-.685-1.655-5.047h0a2.4,2.4,0,0,0-1.641-1.562h0l-3.7-1.029h0a2.642,2.642,0,0,0-.763-.1l-.021,0h-.021l-2.323.167h0a4.511,4.511,0,0,0-3.2,1.677h0l-3.645,4.535,0,0,0,0a1.98,1.98,0,0,0,3.092,2.474v0l0,0,3.441-4.3.361.067-1.417,4.658h0a4.051,4.051,0,0,0,.707,3.7l-6.155,8.159-.006.008-.006.008a2.224,2.224,0,0,0,1.818,3.511,2.3,2.3,0,0,0,.274-.016,2.214,2.214,0,0,0,1.47-.817l.006-.009.006-.007,5.257-6.947,3.8,6.7,0,0a2.22,2.22,0,0,0,1.908,1.148h.029a2.238,2.238,0,0,0,1.942-3.34l0-.009-4.3-7.568a1.54,1.54,0,0,1-.131-1.2h0l1.108-3.645.193.585h0v0a2.249,2.249,0,0,0,1.48,1.442h0l3.269,1h0a1.783,1.783,0,0,0,.539.083,1.882,1.882,0,0,0,1.829-2.309Zm-18.091,13.159a.773.773,0,0,1-1.061.124.749.749,0,0,1-.162-1.035l5.929-7.86.448.549h0a1.577,1.577,0,0,1,.152.218l.321.565Zm16.547-12.432a.4.4,0,0,1-.388.1h-.005l-.006,0-3.269-1h0a.785.785,0,0,1-.519-.5h0l-.919-2.782-.008-.021c-.005-.014-.009-.027-.015-.04l-.015-.032-.016-.031-.02-.034-.017-.027-.024-.032-.02-.025-.025-.028-.024-.025-.025-.023-.029-.025-.025-.018-.033-.024-.026-.015-.035-.02-.031-.015-.033-.015-.04-.014-.021-.008h-.007c-.015-.005-.03-.008-.046-.012l-.025-.006-.044-.006-.028,0h-.038a.194.194,0,0,0-.034,0h-.03l-.043,0-.024,0a.41.41,0,0,0-.048.008l-.021.005-.05.014h-.005l-.019.008-.043.016-.03.014-.033.017-.032.02-.028.018-.031.022-.026.021-.027.024-.026.025-.022.024-.026.03-.018.024-.024.034-.015.026-.02.035-.015.031-.015.033c-.005.013-.01.026-.014.04l-.008.021-1.78,5.857h0a3.01,3.01,0,0,0,.258,2.356l4.3,7.568,0,.007,0,0a.773.773,0,0,1-.679,1.148.744.744,0,0,1-.648-.4l0-.005,0-.006-4.911-8.653h0a3.069,3.069,0,0,0-.292-.421h0l-1.364-1.669h0a2.585,2.585,0,0,1-.478-2.4h0l1.544-5.078h0a1.075,1.075,0,0,0-.121-.865,1.038,1.038,0,0,0-.694-.5h0l-1.042-.194h0a1.072,1.072,0,0,0-.871.22l-.014.011-.006.006-.018.017-.03.029c-.01.01-.019.021-.028.031l-.016.018-3.628,4.532a.514.514,0,0,1-.8-.642l3.641-4.531h0a3.046,3.046,0,0,1,2.163-1.132h0l2.3-.165a1.21,1.21,0,0,1,.335.043h0l3.7,1.029a.95.95,0,0,1,.641.608h0l1.725,5.258h0a1.031,1.031,0,0,0,.678.667h0l2.477.752h.006l.005,0a.38.38,0,0,1,.278.28A.4.4,0,0,1,1370.539,536.23Z" fill="#1e6dea"/>
    </g>
  </g>
</svg>
